<svg id="山豬" xmlns="http://www.w3.org/2000/svg" viewBox="0 0 24.15 19.75"><defs><style>.cls-1{fill:#fff;}.cls-2{fill:none;stroke:#123487;stroke-miterlimit:10;stroke-width:0.5px;}.cls-3{fill:#123487;}</style></defs><title>boar-border</title><path class="cls-1" d="M32.71,21.28A3.51,3.51,0,0,0,34,23.68,11.22,11.22,0,0,1,27.49,28l-.33.06.17.18A.95.95,0,0,1,26,29.49L24.84,28.3a11.13,11.13,0,0,1-4.65-.95,16.73,16.73,0,0,1-4.71-2.52L15,24.52a8.9,8.9,0,0,1-1.26-1.27l-.1-.14L11.83,23a.94.94,0,0,1,.09-1.88h.43l-.19-.36L12,20.4a5.07,5.07,0,0,1-.35-1,7.23,7.23,0,0,1-.34-1.89,2.94,2.94,0,0,1-.62-3.25,6.8,6.8,0,0,1,1.61-3.14c.23-.26.27-.16.27-.16,3.9,2.74,6.22,1.57,7.86,1.08l.2-.06c2.47-2.18,4.29-1.33,4.29-1.33a2.67,2.67,0,0,1-1,1.43c3.14-1.17,4.42.56,4.42.56a2.09,2.09,0,0,1-1.05.78C34.21,16.87,32.68,19.87,32.71,21.28Z" transform="translate(-10.22 -10.25)"/><path class="cls-2" d="M27.49,28l-.33.06.17.18A.95.95,0,0,1,26,29.49L24.84,28.3a11.13,11.13,0,0,1-4.65-.95,16.73,16.73,0,0,1-4.71-2.52L15,24.52a8.9,8.9,0,0,1-1.26-1.27l-.1-.14L11.83,23a.94.94,0,0,1,.09-1.88h.43l-.19-.36L12,20.4a5.07,5.07,0,0,1-.35-1,7.23,7.23,0,0,1-.34-1.89,2.94,2.94,0,0,1-.62-3.25,6.8,6.8,0,0,1,1.61-3.14c.23-.26.27-.16.27-.16,3.9,2.74,6.22,1.57,7.86,1.08l.2-.06c2.47-2.18,4.29-1.33,4.29-1.33a2.67,2.67,0,0,1-1,1.43c3.14-1.17,4.42.56,4.42.56a2.09,2.09,0,0,1-1.05.78c7,3.44,5.46,6.44,5.49,7.85A3.51,3.51,0,0,0,34,23.68,11.22,11.22,0,0,1,27.49,28Z" transform="translate(-10.22 -10.25)"/><path class="cls-3" d="M29.18,23.26l-.2-.19-.21-.17-.24-.17c-.16-.11-.34-.24-.52-.35l-.46-.26-.8-.41-.44-.22-.26-.13-.31-.14L25.26,21c-.25-.12-.43-.19-.58-.25l-.31-.14a7.17,7.17,0,0,0-2.24-.52c.34.22.62.41.93.59a8.53,8.53,0,0,0,1.05.52l.31.13.56.26.48.21.3.14.25.12.44.22.79.41.45.25.56.3.25.12.24.12.24.1.24.11.52.21-.37-.43A2.57,2.57,0,0,0,29.18,23.26Z" transform="translate(-10.22 -10.25)"/><path class="cls-3" d="M25.71,19c.15.05.39.14.89.35l.57.24.26.12.1.05.31.15.28.14.25.13.74.44.25.17.16.12c.38.27.65.48.92.69a4.81,4.81,0,0,1,.78.71,2.7,2.7,0,0,0-.44-1,4.13,4.13,0,0,0-.89-.88l-.18-.13-.26-.18c-.2-.13-.46-.28-.78-.46l-.27-.14-.28-.15-.32-.15-.11-.06L27.42,19c-.2-.09-.44-.2-.59-.25l-.91-.35a6.75,6.75,0,0,0-1.17-.32A8.29,8.29,0,0,0,23.64,18l1,.52A9.1,9.1,0,0,0,25.71,19Z" transform="translate(-10.22 -10.25)"/><path class="cls-3" d="M26.56,16.51c.19.08.75.31,1.26.56l.66.34.28.16.27.17c.17.1.39.25.61.41a7.91,7.91,0,0,1,.63.52l.12.12.11.1.15.16.09.09.09.08.17.13.2.11.23.11v-.26a1.55,1.55,0,0,0-.05-.23,1.47,1.47,0,0,0-.1-.22l-.07-.12-.1-.11a1.29,1.29,0,0,0-.16-.17l-.12-.12-.14-.13c-.21-.18-.44-.36-.67-.52s-.47-.33-.65-.44l-.29-.17-.29-.17-.69-.36A12.73,12.73,0,0,0,26.8,16a1.5,1.5,0,0,0-1,0A1.72,1.72,0,0,0,26.56,16.51Z" transform="translate(-10.22 -10.25)"/><path class="cls-3" d="M17.72,19.34a.24.24,0,0,0,0-.12l-.9-1.86a.16.16,0,0,0-.2-.08.14.14,0,0,0-.09.08,11.64,11.64,0,0,0-.41,2.1,6.77,6.77,0,0,1-2.26-.52c2.13,1.07,3.32.72,3.75.52h0l.06,0,.11-.07Z" transform="translate(-10.22 -10.25)"/></svg>