<svg id="山豬" xmlns="http://www.w3.org/2000/svg" viewBox="0 0 44.93 36.82"><defs><style>.cls-1{fill:#fff;}</style></defs><title>boar</title><path class="cls-1" d="M342.25,61.52s-2.46-1.92-2.51-4.57,2.87-8.38-10.51-14.94a4,4,0,0,0,2-1.48s-2.41-3.32-8.44-1.08a5.14,5.14,0,0,0,2-2.73s-3.49-1.62-8.19,2.55l-.39.11c-3.09,1-7.52,3.17-15-2.07,0,0-.08-.22-.52.31s-1.79,1.78-3.07,6,1.18,6.19,1.18,6.19a13.67,13.67,0,0,0,.66,3.61,9.88,9.88,0,0,0,.65,1.89l.38.73.36.69-.82,0a1.79,1.79,0,1,0-.18,3.58l3.49.18.19.26A17,17,0,0,0,306,63.19l.87.58a32.06,32.06,0,0,0,9,4.82,21.2,21.2,0,0,0,8.87,1.8l2.12,2.27a1.8,1.8,0,0,0,2.63-2.45l-.32-.34.62-.13A21.28,21.28,0,0,0,342.25,61.52Zm-31.19-8.13a.41.41,0,0,1-.11.07l-.05,0c-.82.42-3.09,1.1-7.15-1a12.9,12.9,0,0,0,4.31,1,21,21,0,0,1,.79-4,.29.29,0,0,1,.54,0l1.72,3.54a.37.37,0,0,1,0,.23l.14,0A1.72,1.72,0,0,1,311.06,53.39Zm17.35-6.59c.38.14,1.49.6,2.49,1.09.5.24,1,.49,1.31.68s.56.33.56.33l.56.33c.33.2.78.5,1.23.83a14.24,14.24,0,0,1,1.29,1l.27.25.22.22a3.86,3.86,0,0,1,.31.33,1.68,1.68,0,0,1,.18.21l.14.22a2.26,2.26,0,0,1,.19.42,3.26,3.26,0,0,1,.09.45,4,4,0,0,1,0,.5l-.43-.22-.38-.21a4.08,4.08,0,0,1-.33-.25l-.17-.15c-.06,0-.11-.11-.17-.17s-.16-.18-.29-.3l-.2-.2-.24-.22a13.43,13.43,0,0,0-1.19-1c-.43-.31-.85-.59-1.17-.79l-.52-.32-.54-.3c-.33-.18-.78-.42-1.26-.66-1-.47-2-.91-2.4-1.06a3.41,3.41,0,0,1-1.44-1.14A2.79,2.79,0,0,1,328.41,46.8ZM324.54,51a13,13,0,0,1,2.24.6c.29.11.76.28,1.74.67.28.11.74.31,1.13.49l.51.23.21.1.61.3.54.27.51.27c.61.34,1.11.64,1.49.89l.49.34.35.25a7.47,7.47,0,0,1,1.69,1.68,5.13,5.13,0,0,1,.85,2,9.05,9.05,0,0,0-1.49-1.39c-.51-.4-1-.81-1.75-1.32l-.32-.23c-.13-.1-.29-.2-.47-.32-.36-.23-.82-.51-1.42-.84l-.48-.26-.52-.26-.59-.29-.2-.1-.49-.22-1.1-.47c-.95-.39-1.41-.56-1.7-.66-.83-.31-1.48-.59-2.09-.88s-1.16-.62-1.85-1A15.22,15.22,0,0,1,324.54,51Zm3.26,7.9-.84-.42-.49-.23L325.9,58l-.91-.41-1.08-.48-.59-.25a18.59,18.59,0,0,1-2-1c-.59-.34-1.13-.7-1.78-1.13a13.42,13.42,0,0,1,4.28,1l.6.26c.27.12.62.26,1.1.48l.92.42.58.27.5.24.85.42c.63.31,1.13.59,1.52.79l.88.49c.4.22.74.46,1,.67l.45.32.4.34.38.35c.12.12.24.23.36.37s.47.53.72.82c-.37-.14-.69-.28-1-.41l-.46-.2-.46-.2-.46-.22c-.16-.08-.32-.15-.48-.24-.33-.16-.68-.36-1.07-.57l-.86-.48C328.9,59.44,328.42,59.18,327.8,58.87Z" transform="translate(-297.32 -36.41)"/></svg>