<svg id="_102" data-name="102" xmlns="http://www.w3.org/2000/svg" viewBox="0 0 400 400"><defs><style>.cls-1{fill:#818181;}</style></defs><title>airplane</title><path class="cls-1" d="M16.12,156.38A25.43,25.43,0,0,0,.28,176.55c-1.44,9.12,2.87,18.25,10.07,23.52L92,259.62,382,31.53,125.6,284.11,237,365.25a28.62,28.62,0,0,0,25,4.32c8.18-2.36,14.89-9.09,18.25-17.29L399.32,25.75a8.83,8.83,0,0,0-11.53-11.52ZM72.78,279.31l.48,3.86,15.85,86.88a21.74,21.74,0,0,0,11.52,14.41A20.29,20.29,0,0,0,118.88,383c22.1-14.41,50.89-33.12,50.42-34.56Z"/></svg>