<svg id="圖層_1" data-name="圖層 1" xmlns="http://www.w3.org/2000/svg" viewBox="0 0 712.12 84.76"><defs><style>.cls-1{fill:#fff;}.cls-2{fill:#00a0df;}</style></defs><title>boar_logo</title><path class="cls-1" d="M0,0H75.77V19.92H50.35V80.67H25.42V19.92H0Z"/><path class="cls-1" d="M71.69,0H94.08V29.71A30.19,30.19,0,0,1,103.16,23a25.76,25.76,0,0,1,10.68-2q9.14,0,14.39,5.56t5.25,17.06V80.67H111V48.53c0-3.66-.68-6.26-2-7.78a7.26,7.26,0,0,0-5.72-2.29,8.13,8.13,0,0,0-6.6,3.08q-2.53,3.09-2.54,11.06V80.67H71.69Z"/><path class="cls-1" d="M194.82,57h-44.9q.62,5.39,2.92,8a10.62,10.62,0,0,0,8.47,3.8,12.76,12.76,0,0,0,6.28-1.65,14.78,14.78,0,0,0,3.9-3.69l22.07,2q-5.07,8.8-12.22,12.62T160.82,82q-11.61,0-18.27-3.28a26.7,26.7,0,0,1-11-10.4,31.33,31.33,0,0,1-4.38-16.75q0-13.71,8.78-22.18t24.24-8.47q12.54,0,19.81,3.8a25.65,25.65,0,0,1,11.06,11q3.79,7.22,3.79,18.77ZM172,46.28q-.66-6.49-3.49-9.3a11,11,0,0,0-16,1.43c-1.35,1.76-2.22,4.38-2.58,7.87Z"/><path class="cls-1" d="M219.84,0H266.5q11.67,0,17.91,5.78a18.68,18.68,0,0,1,6.25,14.3,18.1,18.1,0,0,1-4.46,12.28,19.89,19.89,0,0,1-8.69,5.39q8.69,2.09,12.79,7.18a19.75,19.75,0,0,1,4.1,12.79A21.93,21.93,0,0,1,291.48,69a21.46,21.46,0,0,1-8,7.93q-3.13,1.81-9.46,2.64a110.28,110.28,0,0,1-11.17,1.1h-43ZM245,31.64h10.84c3.88,0,6.59-.67,8.11-2a7.32,7.32,0,0,0,2.29-5.8,6.92,6.92,0,0,0-2.29-5.51q-2.28-2-7.95-2H245Zm0,31.69H257.7q6.44,0,9.08-2.28a7.7,7.7,0,0,0,2.64-6.13,7.08,7.08,0,0,0-2.62-5.75Q264.19,47,257.64,47H245Z"/><path class="cls-1" d="M367.28,41.16,345.87,38.9a24.16,24.16,0,0,1,3.49-8.83,19.34,19.34,0,0,1,6.58-5.58,27.33,27.33,0,0,1,8.47-2.64,67.79,67.79,0,0,1,11.67-.94A92.92,92.92,0,0,1,392.26,22a20.84,20.84,0,0,1,10.18,4.7,16.55,16.55,0,0,1,4.51,7,25.35,25.35,0,0,1,1.65,8.66V68.23a31.14,31.14,0,0,0,.52,6.47,28.79,28.79,0,0,0,2.29,6h-21a20.5,20.5,0,0,1-1.65-3.44,25.32,25.32,0,0,1-.78-3.72,28.93,28.93,0,0,1-8.74,6.06A36.56,36.56,0,0,1,365.4,82q-10.45,0-15.87-4.84a15.4,15.4,0,0,1-5.42-11.94A15.61,15.61,0,0,1,348,54.26q3.9-4.3,14.41-6.39,12.6-2.52,16.35-3.55a74.67,74.67,0,0,0,7.92-2.67q0-4.12-1.71-5.77t-6-1.65c-3.67,0-6.42.58-8.26,1.76C369.31,36.9,368.16,38.63,367.28,41.16ZM386.7,52.93q-4.62,1.66-9.63,2.92-6.82,1.82-8.64,3.58a5.73,5.73,0,0,0,0,8.44,7.8,7.8,0,0,0,5.42,1.68,13.9,13.9,0,0,0,7-1.81,11,11,0,0,0,4.57-4.43,14.82,14.82,0,0,0,1.35-6.8Z"/><path class="cls-1" d="M415,22.23h21V31.8q3-6.21,6.24-8.55a13.19,13.19,0,0,1,8-2.34A23.72,23.72,0,0,1,461,24L454.1,40a17.6,17.6,0,0,0-6.27-1.65A7.72,7.72,0,0,0,441,41.93q-3.47,5.12-3.47,19.15V80.67H415Z"/><path class="cls-1" d="M473.83,0H549.6V19.92H524.18V80.67H499.26V19.92H473.83Z"/><path class="cls-1" d="M600.6,57H555.7q.62,5.39,2.92,8a10.62,10.62,0,0,0,8.47,3.8,12.79,12.79,0,0,0,6.28-1.65,14.78,14.78,0,0,0,3.9-3.69l22.07,2q-5.07,8.8-12.22,12.62T566.6,82Q555,82,548.33,78.71a26.7,26.7,0,0,1-11-10.4,31.33,31.33,0,0,1-4.38-16.75q0-13.71,8.78-22.18t24.24-8.47q12.54,0,19.81,3.8a25.65,25.65,0,0,1,11.06,11q3.8,7.22,3.79,18.77ZM577.82,46.28q-.66-6.49-3.49-9.3a11,11,0,0,0-16,1.43c-1.35,1.76-2.22,4.38-2.58,7.87Z"/><path class="cls-1" d="M637.57,57.78l21.29,2.42a29.91,29.91,0,0,1-5.77,11.53,26.8,26.8,0,0,1-10.27,7.56Q636.58,82,627,82a58.75,58.75,0,0,1-15.49-1.73,27.2,27.2,0,0,1-10.65-5.61,28.37,28.37,0,0,1-7-9.1q-2.52-5.22-2.53-13.85,0-9,3.08-15a27.28,27.28,0,0,1,6.17-7.89,28.39,28.39,0,0,1,8-5.2q6.55-2.69,16.78-2.69,14.31,0,21.82,5.12t10.54,15L636.63,43.8a9.8,9.8,0,0,0-3.6-5.64,11.66,11.66,0,0,0-7-1.9,11.3,11.3,0,0,0-9,4q-3.45,4-3.44,12,0,7.2,3.41,10.93A11.25,11.25,0,0,0,625.68,67a12,12,0,0,0,7.4-2.26A13.41,13.41,0,0,0,637.57,57.78Z"/><path class="cls-1" d="M650.33,0h22.39V29.71A30.07,30.07,0,0,1,681.8,23a25.74,25.74,0,0,1,10.67-2q9.13,0,14.39,5.56t5.26,17.06V80.67H689.61V48.53c0-3.66-.68-6.26-2-7.78a7.26,7.26,0,0,0-5.73-2.29,8.15,8.15,0,0,0-6.6,3.08q-2.54,3.09-2.53,11.06V80.67H650.33Z"/><path class="cls-2" d="M343,27.88a14.21,14.21,0,0,1,9.45,17.67l-8.82,29.14A14.21,14.21,0,0,1,326,84.14l-29.13-8.82a14.21,14.21,0,0,1-9.46-17.67l8.82-29.13a14.21,14.21,0,0,1,17.67-9.46Zm-.75,33.64s-2.46-1.92-2.51-4.57,2.87-8.39-10.5-15a4,4,0,0,0,2-1.47s-2.41-3.33-8.44-1.08a5.17,5.17,0,0,0,2-2.74s-3.48-1.61-8.19,2.55l-.39.11c-3.09,1-7.51,3.17-14.95-2.06,0,0-.08-.23-.53.31s-1.78,1.77-3.06,6,1.17,6.19,1.17,6.19a13.48,13.48,0,0,0,.67,3.61,9.68,9.68,0,0,0,.65,1.89c.12.24.25.48.38.72s.23.46.35.69l-.81,0a1.8,1.8,0,1,0-.18,3.59l3.49.18c.06.08.12.17.19.25A16.1,16.1,0,0,0,306,63.19l.86.57a32.21,32.21,0,0,0,9,4.83,21.11,21.11,0,0,0,8.87,1.79l2.12,2.28a1.8,1.8,0,1,0,2.63-2.45l-.32-.34.63-.14A21.28,21.28,0,0,0,342.25,61.52Z"/><path class="cls-1" d="M339.74,57c.05,2.65,2.51,4.57,2.51,4.57a21.28,21.28,0,0,1-12.47,8.21l-.63.14.32.34a1.8,1.8,0,1,1-2.63,2.45l-2.12-2.28a21.11,21.11,0,0,1-8.87-1.79,32.21,32.21,0,0,1-9-4.83l-.86-.57a16.1,16.1,0,0,1-2.42-2.45c-.07-.08-.13-.17-.19-.25l-3.49-.18a1.8,1.8,0,1,1,.18-3.59l.81,0c-.12-.23-.24-.46-.35-.69s-.26-.48-.38-.72a9.68,9.68,0,0,1-.65-1.89,13.48,13.48,0,0,1-.67-3.61s-2.46-1.93-1.17-6.19,2.62-5.5,3.06-6,.53-.31.53-.31c7.44,5.23,11.86,3,14.95,2.06l.39-.11c4.71-4.16,8.19-2.55,8.19-2.55a5.17,5.17,0,0,1-2,2.74c6-2.25,8.44,1.08,8.44,1.08a4,4,0,0,1-2,1.47C342.61,48.56,339.69,54.3,339.74,57Z"/><path class="cls-2" d="M333,60.77l-.38-.35-.4-.34-.45-.32c-.31-.21-.65-.45-1-.67l-.88-.49c-.39-.2-.89-.48-1.52-.79l-.85-.42-.5-.24-.58-.27-.92-.42c-.48-.22-.83-.36-1.1-.48l-.6-.26a13.42,13.42,0,0,0-4.28-1c.65.43,1.19.79,1.78,1.13a18.59,18.59,0,0,0,2,1l.59.25,1.08.48.91.41.57.27.49.23.84.42c.62.31,1.1.57,1.49.77l.86.48c.39.21.74.41,1.07.57.16.09.32.16.48.24l.46.22.46.2a4.58,4.58,0,0,1,.46.2c.32.13.64.27,1,.41-.25-.29-.49-.57-.72-.82S333.13,60.89,333,60.77Z"/><path class="cls-2" d="M326.37,52.68c.29.1.75.27,1.7.66l1.1.47.49.22.2.1.59.29.52.26.48.26c.6.33,1.06.61,1.42.84.18.12.34.22.47.32l.32.23c.71.51,1.24.92,1.75,1.32A9.05,9.05,0,0,1,336.9,59a5.13,5.13,0,0,0-.85-2,7.47,7.47,0,0,0-1.69-1.68l-.35-.25-.49-.34c-.38-.25-.88-.55-1.49-.89l-.51-.27-.54-.27-.61-.3-.21-.1-.51-.23c-.39-.18-.85-.38-1.13-.49-1-.39-1.45-.56-1.74-.67a13,13,0,0,0-2.24-.6,15.22,15.22,0,0,0-2.11-.16c.69.37,1.25.69,1.85,1S325.54,52.37,326.37,52.68Z"/><path class="cls-2" d="M328,47.89c.36.15,1.44.59,2.4,1.06.48.24.93.48,1.26.66l.54.3.52.32c.32.2.74.48,1.17.79a13.43,13.43,0,0,1,1.19,1l.24.22.2.2c.13.12.22.23.29.3s.11.12.17.17l.17.15a4.08,4.08,0,0,0,.33.25l.38.21.43.22a4,4,0,0,0,0-.5,3.26,3.26,0,0,0-.09-.45,2.26,2.26,0,0,0-.19-.42l-.14-.22a1.68,1.68,0,0,0-.18-.21,3.86,3.86,0,0,0-.31-.33l-.22-.22-.27-.25a14.24,14.24,0,0,0-1.29-1c-.45-.33-.9-.63-1.23-.83l-.56-.33s-.22-.14-.56-.33-.81-.44-1.31-.68c-1-.49-2.11-1-2.49-1.09a2.79,2.79,0,0,0-1.87,0A3.41,3.41,0,0,0,328,47.89Z"/><path class="cls-2" d="M311.12,53.29a.37.37,0,0,0,0-.23l-1.72-3.54a.29.29,0,0,0-.54,0,21,21,0,0,0-.79,4,12.9,12.9,0,0,1-4.31-1c4.06,2.06,6.33,1.38,7.15,1l.05,0a.41.41,0,0,0,.11-.07,1.72,1.72,0,0,0,.2-.14Z"/></svg>